STARTFONT 2.1
COMMENT This font is a free software.
COMMENT Unlimited permission is granted to use, copy, and distribute it,
COMMENT with or without modification, either commercially and noncommercially.
COMMENT THIS FONT IS PROVIDED "AS IS" WITHOUT WARRANTY.
FONT -teku-gothic-bold-R-normal--12-120-75-75-C-60-jisx0201.1976-0
SIZE 13 75 75
FONTBOUNDINGBOX 6 13 0 -2
STARTPROPERTIES 23
FONTNAME_REGISTRY ""
FOUNDRY "teku"
FAMILY_NAME "gothic"
WEIGHT_NAME "bold"
SLANT "R"
SETWIDTH_NAME "normal"
ADD_STYLE_NAME ""
PIXEL_SIZE 12
POINT_SIZE 120
RESOLUTION_X 75
RESOLUTION_Y 75
SPACING "C"
AVERAGE_WIDTH 60
CHARSET_REGISTRY "iso8859"
CHARSET_ENCODING "1"
COPYRIGHT "Copyright (C) 2022 itouhiro"
WEIGHT 10
X_HEIGHT 11
QUAD_WIDTH 6
DEFAULT_CHAR 0
FONT_DESCENT 2
FONT_ASCENT 11
_XMBDFED_INFO "Edited with xmbdfed 4.5."
ENDPROPERTIES
CHARS 192
STARTCHAR 0x0000
ENCODING 0
SWIDTH 443 0
DWIDTH 6 0
BBX 6 13 0 -2
BITMAP
00
00
00
00
00
00
00
00
00
00
00
00
00
ENDCHAR
STARTCHAR 0x0001
ENCODING 1
SWIDTH 443 0
DWIDTH 6 0
BBX 6 13 0 -2
BITMAP
00
00
00
00
20
70
f8
70
20
00
00
00
00
ENDCHAR
STARTCHAR 0x0002
ENCODING 2
SWIDTH 443 0
DWIDTH 6 0
BBX 6 13 0 -2
BITMAP
00
54
a8
54
a8
54
a8
54
a8
54
a8
54
a8
ENDCHAR
STARTCHAR 0x0003
ENCODING 3
SWIDTH 443 0
DWIDTH 6 0
BBX 6 13 0 -2
BITMAP
00
d8
d8
f8
d8
d8
00
fc
30
30
30
30
00
ENDCHAR
STARTCHAR 0x0004
ENCODING 4
SWIDTH 443 0
DWIDTH 6 0
BBX 6 13 0 -2
BITMAP
00
f8
c0
f8
c0
c0
00
f8
c0
f8
c0
c0
00
ENDCHAR
STARTCHAR 0x0005
ENCODING 5
SWIDTH 443 0
DWIDTH 6 0
BBX 6 13 0 -2
BITMAP
00
f8
d8
c0
c0
f8
00
f8
d8
f0
d8
d8
00
ENDCHAR
STARTCHAR 0x0006
ENCODING 6
SWIDTH 443 0
DWIDTH 6 0
BBX 6 13 0 -2
BITMAP
00
c0
c0
c0
c0
f8
00
f8
c0
f8
c0
c0
00
ENDCHAR
STARTCHAR 0x0007
ENCODING 7
SWIDTH 443 0
DWIDTH 6 0
BBX 6 13 0 -2
BITMAP
00
70
d8
d8
70
00
00
00
00
00
00
00
00
ENDCHAR
STARTCHAR 0x0008
ENCODING 8
SWIDTH 443 0
DWIDTH 6 0
BBX 6 13 0 -2
BITMAP
00
00
00
60
60
f8
60
60
00
00
f8
00
00
ENDCHAR
STARTCHAR 0x0009
ENCODING 9
SWIDTH 443 0
DWIDTH 6 0
BBX 6 13 0 -2
BITMAP
00
d8
d8
f8
d8
d8
00
c0
c0
c0
c0
f8
00
ENDCHAR
STARTCHAR 0x000A
ENCODING 10
SWIDTH 443 0
DWIDTH 6 0
BBX 6 13 0 -2
BITMAP
00
d8
d8
d8
f0
e0
00
fc
30
30
30
30
00
ENDCHAR
STARTCHAR 0x000B
ENCODING 11
SWIDTH 443 0
DWIDTH 6 0
BBX 6 13 0 -2
BITMAP
30
30
30
30
30
30
f0
f0
00
00
00
00
00
ENDCHAR
STARTCHAR 0x000C
ENCODING 12
SWIDTH 443 0
DWIDTH 6 0
BBX 6 13 0 -2
BITMAP
00
00
00
00
00
00
f0
f0
30
30
30
30
30
ENDCHAR
STARTCHAR 0x000D
ENCODING 13
SWIDTH 443 0
DWIDTH 6 0
BBX 6 13 0 -2
BITMAP
00
00
00
00
00
00
3c
3c
30
30
30
30
30
ENDCHAR
STARTCHAR 0x000E
ENCODING 14
SWIDTH 443 0
DWIDTH 6 0
BBX 6 13 0 -2
BITMAP
30
30
30
30
30
30
3c
3c
00
00
00
00
00
ENDCHAR
STARTCHAR 0x000F
ENCODING 15
SWIDTH 443 0
DWIDTH 6 0
BBX 6 13 0 -2
BITMAP
30
30
30
30
30
30
fc
fc
30
30
30
30
30
ENDCHAR
STARTCHAR 0x0010
ENCODING 16
SWIDTH 443 0
DWIDTH 6 0
BBX 6 13 0 -2
BITMAP
00
00
fc
fc
00
00
00
00
00
00
00
00
00
ENDCHAR
STARTCHAR 0x0011
ENCODING 17
SWIDTH 443 0
DWIDTH 6 0
BBX 6 13 0 -2
BITMAP
00
00
00
00
fc
fc
00
00
00
00
00
00
00
ENDCHAR
STARTCHAR 0x0012
ENCODING 18
SWIDTH 443 0
DWIDTH 6 0
BBX 6 13 0 -2
BITMAP
00
00
00
00
00
00
fc
fc
00
00
00
00
00
ENDCHAR
STARTCHAR 0x0013
ENCODING 19
SWIDTH 443 0
DWIDTH 6 0
BBX 6 13 0 -2
BITMAP
00
00
00
00
00
00
00
00
fc
fc
00
00
00
ENDCHAR
STARTCHAR 0x0014
ENCODING 20
SWIDTH 443 0
DWIDTH 6 0
BBX 6 13 0 -2
BITMAP
00
00
00
00
00
00
00
00
00
00
fc
fc
00
ENDCHAR
STARTCHAR 0x0015
ENCODING 21
SWIDTH 443 0
DWIDTH 6 0
BBX 6 13 0 -2
BITMAP
30
30
30
30
30
30
3c
3c
30
30
30
30
30
ENDCHAR
STARTCHAR 0x0016
ENCODING 22
SWIDTH 443 0
DWIDTH 6 0
BBX 6 13 0 -2
BITMAP
30
30
30
30
30
30
f0
f0
30
30
30
30
30
ENDCHAR
STARTCHAR 0x0017
ENCODING 23
SWIDTH 443 0
DWIDTH 6 0
BBX 6 13 0 -2
BITMAP
30
30
30
30
30
30
fc
fc
00
00
00
00
00
ENDCHAR
STARTCHAR 0x0018
ENCODING 24
SWIDTH 443 0
DWIDTH 6 0
BBX 6 13 0 -2
BITMAP
00
00
00
00
00
00
fc
fc
30
30
30
30
30
ENDCHAR
STARTCHAR 0x0019
ENCODING 25
SWIDTH 443 0
DWIDTH 6 0
BBX 6 13 0 -2
BITMAP
30
30
30
30
30
30
30
30
30
30
30
30
30
ENDCHAR
STARTCHAR 0x001A
ENCODING 26
SWIDTH 443 0
DWIDTH 6 0
BBX 6 13 0 -2
BITMAP
00
00
18
30
60
c0
60
30
18
00
f8
00
00
ENDCHAR
STARTCHAR 0x001B
ENCODING 27
SWIDTH 443 0
DWIDTH 6 0
BBX 6 13 0 -2
BITMAP
00
00
c0
60
30
18
30
60
c0
00
f8
00
00
ENDCHAR
STARTCHAR 0x001C
ENCODING 28
SWIDTH 443 0
DWIDTH 6 0
BBX 6 13 0 -2
BITMAP
00
00
00
00
00
f8
58
58
58
98
98
00
00
ENDCHAR
STARTCHAR 0x001D
ENCODING 29
SWIDTH 443 0
DWIDTH 6 0
BBX 6 13 0 -2
BITMAP
00
00
00
30
30
f8
70
f8
60
60
00
00
00
ENDCHAR
STARTCHAR 0x001E
ENCODING 30
SWIDTH 443 0
DWIDTH 6 0
BBX 6 13 0 -2
BITMAP
00
00
30
68
60
60
f8
60
60
60
b8
00
00
ENDCHAR
STARTCHAR 0x001F
ENCODING 31
SWIDTH 443 0
DWIDTH 6 0
BBX 6 13 0 -2
BITMAP
00
00
00
00
00
00
60
60
00
00
00
00
00
ENDCHAR
STARTCHAR 0x0020
ENCODING 32
SWIDTH 443 0
DWIDTH 6 0
BBX 6 13 0 -2
BITMAP
00
00
00
00
00
00
00
00
00
00
00
00
00
ENDCHAR
STARTCHAR 0x0021
ENCODING 33
SWIDTH 443 0
DWIDTH 6 0
BBX 6 13 0 -2
BITMAP
00
00
30
30
30
30
30
00
00
30
30
00
00
ENDCHAR
STARTCHAR 0x0022
ENCODING 34
SWIDTH 443 0
DWIDTH 6 0
BBX 6 13 0 -2
BITMAP
00
00
6c
6c
d8
00
00
00
00
00
00
00
00
ENDCHAR
STARTCHAR 0x0023
ENCODING 35
SWIDTH 443 0
DWIDTH 6 0
BBX 6 13 0 -2
BITMAP
00
d8
d8
d8
d8
00
00
00
00
00
00
00
00
ENDCHAR
STARTCHAR 0x0024
ENCODING 36
SWIDTH 443 0
DWIDTH 6 0
BBX 6 13 0 -2
BITMAP
00
00
30
3c
50
50
38
34
34
78
30
00
00
ENDCHAR
STARTCHAR 0x0025
ENCODING 37
SWIDTH 443 0
DWIDTH 6 0
BBX 6 13 0 -2
BITMAP
00
00
60
d0
d4
68
30
68
d4
34
18
00
00
ENDCHAR
STARTCHAR 0x0026
ENCODING 38
SWIDTH 443 0
DWIDTH 6 0
BBX 6 13 0 -2
BITMAP
00
00
70
d8
d8
70
60
d4
d8
cc
78
00
00
ENDCHAR
STARTCHAR 0x0027
ENCODING 39
SWIDTH 443 0
DWIDTH 6 0
BBX 6 13 0 -2
BITMAP
00
60
60
60
60
00
00
00
00
00
00
00
00
ENDCHAR
STARTCHAR 0x0028
ENCODING 40
SWIDTH 443 0
DWIDTH 6 0
BBX 6 13 0 -2
BITMAP
00
00
18
30
60
60
60
60
60
60
30
18
00
ENDCHAR
STARTCHAR 0x0029
ENCODING 41
SWIDTH 443 0
DWIDTH 6 0
BBX 6 13 0 -2
BITMAP
00
00
60
30
18
18
18
18
18
18
30
60
00
ENDCHAR
STARTCHAR 0x002A
ENCODING 42
SWIDTH 443 0
DWIDTH 6 0
BBX 6 13 0 -2
BITMAP
00
00
00
00
20
a8
f0
a8
20
00
00
00
00
ENDCHAR
STARTCHAR 0x002B
ENCODING 43
SWIDTH 443 0
DWIDTH 6 0
BBX 6 13 0 -2
BITMAP
00
00
00
00
20
20
f8
20
20
00
00
00
00
ENDCHAR
STARTCHAR 0x002C
ENCODING 44
SWIDTH 443 0
DWIDTH 6 0
BBX 6 13 0 -2
BITMAP
00
00
00
00
00
00
00
00
00
30
30
60
c0
ENDCHAR
STARTCHAR 0x002D
ENCODING 45
SWIDTH 443 0
DWIDTH 6 0
BBX 6 13 0 -2
BITMAP
00
00
00
00
00
00
f8
00
00
00
00
00
00
ENDCHAR
STARTCHAR 0x002E
ENCODING 46
SWIDTH 443 0
DWIDTH 6 0
BBX 6 13 0 -2
BITMAP
00
00
00
00
00
00
00
00
00
60
60
00
00
ENDCHAR
STARTCHAR 0x002F
ENCODING 47
SWIDTH 443 0
DWIDTH 6 0
BBX 6 13 0 -2
BITMAP
00
00
08
18
10
30
20
60
40
c0
80
00
00
ENDCHAR
STARTCHAR 0x0030
ENCODING 48
SWIDTH 443 0
DWIDTH 6 0
BBX 6 13 0 -2
BITMAP
00
00
20
50
98
98
98
98
98
50
20
00
00
ENDCHAR
STARTCHAR 0x0031
ENCODING 49
SWIDTH 443 0
DWIDTH 6 0
BBX 6 13 0 -2
BITMAP
00
00
30
70
30
30
30
30
30
30
30
00
00
ENDCHAR
STARTCHAR 0x0032
ENCODING 50
SWIDTH 443 0
DWIDTH 6 0
BBX 6 13 0 -2
BITMAP
00
00
f0
18
18
18
18
30
60
c0
f8
00
00
ENDCHAR
STARTCHAR 0x0033
ENCODING 51
SWIDTH 443 0
DWIDTH 6 0
BBX 6 13 0 -2
BITMAP
00
00
f0
18
18
18
f0
18
18
18
f0
00
00
ENDCHAR
STARTCHAR 0x0034
ENCODING 52
SWIDTH 443 0
DWIDTH 6 0
BBX 6 13 0 -2
BITMAP
00
00
b0
b0
b0
b0
f8
30
30
30
30
00
00
ENDCHAR
STARTCHAR 0x0035
ENCODING 53
SWIDTH 443 0
DWIDTH 6 0
BBX 6 13 0 -2
BITMAP
00
00
f8
c0
c0
c0
f0
18
18
18
f0
00
00
ENDCHAR
STARTCHAR 0x0036
ENCODING 54
SWIDTH 443 0
DWIDTH 6 0
BBX 6 13 0 -2
BITMAP
00
00
70
c0
c0
c0
f0
d8
d8
d8
70
00
00
ENDCHAR
STARTCHAR 0x0037
ENCODING 55
SWIDTH 443 0
DWIDTH 6 0
BBX 6 13 0 -2
BITMAP
00
00
f8
d8
18
18
30
60
60
60
60
00
00
ENDCHAR
STARTCHAR 0x0038
ENCODING 56
SWIDTH 443 0
DWIDTH 6 0
BBX 6 13 0 -2
BITMAP
00
00
70
d8
d8
d8
70
d8
d8
d8
70
00
00
ENDCHAR
STARTCHAR 0x0039
ENCODING 57
SWIDTH 443 0
DWIDTH 6 0
BBX 6 13 0 -2
BITMAP
00
00
70
d8
d8
d8
78
18
18
30
60
00
00
ENDCHAR
STARTCHAR 0x003A
ENCODING 58
SWIDTH 443 0
DWIDTH 6 0
BBX 6 13 0 -2
BITMAP
00
00
00
00
30
30
00
00
30
30
00
00
00
ENDCHAR
STARTCHAR 0x003B
ENCODING 59
SWIDTH 443 0
DWIDTH 6 0
BBX 6 13 0 -2
BITMAP
00
00
00
00
18
18
00
00
18
18
30
60
00
ENDCHAR
STARTCHAR 0x003C
ENCODING 60
SWIDTH 443 0
DWIDTH 6 0
BBX 6 13 0 -2
BITMAP
00
00
00
08
18
30
60
30
18
08
00
00
00
ENDCHAR
STARTCHAR 0x003D
ENCODING 61
SWIDTH 443 0
DWIDTH 6 0
BBX 6 13 0 -2
BITMAP
00
00
00
00
00
78
00
00
78
00
00
00
00
ENDCHAR
STARTCHAR 0x003E
ENCODING 62
SWIDTH 443 0
DWIDTH 6 0
BBX 6 13 0 -2
BITMAP
00
00
00
40
60
30
18
30
60
40
00
00
00
ENDCHAR
STARTCHAR 0x003F
ENCODING 63
SWIDTH 443 0
DWIDTH 6 0
BBX 6 13 0 -2
BITMAP
00
00
f0
18
18
30
60
00
00
60
60
00
00
ENDCHAR
STARTCHAR 0x0040
ENCODING 64
SWIDTH 443 0
DWIDTH 6 0
BBX 6 13 0 -2
BITMAP
00
00
70
d8
a8
a8
a8
a8
b8
c0
f0
00
00
ENDCHAR
STARTCHAR 0x0041
ENCODING 65
SWIDTH 443 0
DWIDTH 6 0
BBX 6 13 0 -2
BITMAP
00
00
30
58
d8
d8
f8
d8
d8
d8
d8
00
00
ENDCHAR
STARTCHAR 0x0042
ENCODING 66
SWIDTH 443 0
DWIDTH 6 0
BBX 6 13 0 -2
BITMAP
00
00
f0
d8
d8
d8
f0
d8
d8
d8
f0
00
00
ENDCHAR
STARTCHAR 0x0043
ENCODING 67
SWIDTH 443 0
DWIDTH 6 0
BBX 6 13 0 -2
BITMAP
00
00
78
c0
c0
c0
c0
c0
c0
c0
78
00
00
ENDCHAR
STARTCHAR 0x0044
ENCODING 68
SWIDTH 443 0
DWIDTH 6 0
BBX 6 13 0 -2
BITMAP
00
00
f0
98
98
98
98
98
98
98
f0
00
00
ENDCHAR
STARTCHAR 0x0045
ENCODING 69
SWIDTH 443 0
DWIDTH 6 0
BBX 6 13 0 -2
BITMAP
00
00
f8
c0
c0
c0
f0
c0
c0
c0
f8
00
00
ENDCHAR
STARTCHAR 0x0046
ENCODING 70
SWIDTH 443 0
DWIDTH 6 0
BBX 6 13 0 -2
BITMAP
00
00
f8
c0
c0
c0
f0
c0
c0
c0
c0
00
00
ENDCHAR
STARTCHAR 0x0047
ENCODING 71
SWIDTH 443 0
DWIDTH 6 0
BBX 6 13 0 -2
BITMAP
00
00
78
c0
c0
c0
d8
c8
c8
c8
78
00
00
ENDCHAR
STARTCHAR 0x0048
ENCODING 72
SWIDTH 443 0
DWIDTH 6 0
BBX 6 13 0 -2
BITMAP
00
00
d8
d8
d8
d8
f8
d8
d8
d8
d8
00
00
ENDCHAR
STARTCHAR 0x0049
ENCODING 73
SWIDTH 443 0
DWIDTH 6 0
BBX 6 13 0 -2
BITMAP
00
00
78
30
30
30
30
30
30
30
78
00
00
ENDCHAR
STARTCHAR 0x004A
ENCODING 74
SWIDTH 443 0
DWIDTH 6 0
BBX 6 13 0 -2
BITMAP
00
00
78
30
30
30
30
30
30
30
e0
00
00
ENDCHAR
STARTCHAR 0x004B
ENCODING 75
SWIDTH 443 0
DWIDTH 6 0
BBX 6 13 0 -2
BITMAP
00
00
c8
d8
d0
a0
e0
a0
d0
d8
d8
00
00
ENDCHAR
STARTCHAR 0x004C
ENCODING 76
SWIDTH 443 0
DWIDTH 6 0
BBX 6 13 0 -2
BITMAP
00
00
c0
c0
c0
c0
c0
c0
c0
c0
f8
00
00
ENDCHAR
STARTCHAR 0x004D
ENCODING 77
SWIDTH 443 0
DWIDTH 6 0
BBX 6 13 0 -2
BITMAP
00
00
98
b8
f8
a8
a8
88
88
88
88
00
00
ENDCHAR
STARTCHAR 0x004E
ENCODING 78
SWIDTH 443 0
DWIDTH 6 0
BBX 6 13 0 -2
BITMAP
00
00
88
88
c8
a8
a8
98
98
98
98
00
00
ENDCHAR
STARTCHAR 0x004F
ENCODING 79
SWIDTH 443 0
DWIDTH 6 0
BBX 6 13 0 -2
BITMAP
00
00
70
d8
d8
d8
d8
d8
d8
d8
70
00
00
ENDCHAR
STARTCHAR 0x0050
ENCODING 80
SWIDTH 443 0
DWIDTH 6 0
BBX 6 13 0 -2
BITMAP
00
00
f0
d8
d8
d8
f0
c0
c0
c0
c0
00
00
ENDCHAR
STARTCHAR 0x0051
ENCODING 81
SWIDTH 443 0
DWIDTH 6 0
BBX 6 13 0 -2
BITMAP
00
00
70
d8
d8
d8
d8
d8
e8
d8
70
18
00
ENDCHAR
STARTCHAR 0x0052
ENCODING 82
SWIDTH 443 0
DWIDTH 6 0
BBX 6 13 0 -2
BITMAP
00
00
f0
d8
d8
d8
f0
b0
d8
d8
d8
00
00
ENDCHAR
STARTCHAR 0x0053
ENCODING 83
SWIDTH 443 0
DWIDTH 6 0
BBX 6 13 0 -2
BITMAP
00
00
78
c0
c0
c0
70
18
18
18
f0
00
00
ENDCHAR
STARTCHAR 0x0054
ENCODING 84
SWIDTH 443 0
DWIDTH 6 0
BBX 6 13 0 -2
BITMAP
00
00
fc
30
30
30
30
30
30
30
30
00
00
ENDCHAR
STARTCHAR 0x0055
ENCODING 85
SWIDTH 443 0
DWIDTH 6 0
BBX 6 13 0 -2
BITMAP
00
00
d8
d8
d8
d8
d8
d8
d8
d8
70
00
00
ENDCHAR
STARTCHAR 0x0056
ENCODING 86
SWIDTH 443 0
DWIDTH 6 0
BBX 6 13 0 -2
BITMAP
00
00
d8
d8
d8
d8
d8
d8
50
30
20
00
00
ENDCHAR
STARTCHAR 0x0057
ENCODING 87
SWIDTH 443 0
DWIDTH 6 0
BBX 6 13 0 -2
BITMAP
00
00
88
88
88
88
a8
a8
d8
98
98
00
00
ENDCHAR
STARTCHAR 0x0058
ENCODING 88
SWIDTH 443 0
DWIDTH 6 0
BBX 6 13 0 -2
BITMAP
00
00
98
98
98
d0
60
d0
98
98
98
00
00
ENDCHAR
STARTCHAR 0x0059
ENCODING 89
SWIDTH 443 0
DWIDTH 6 0
BBX 6 13 0 -2
BITMAP
00
00
98
98
98
d0
60
60
60
60
60
00
00
ENDCHAR
STARTCHAR 0x005A
ENCODING 90
SWIDTH 443 0
DWIDTH 6 0
BBX 6 13 0 -2
BITMAP
00
00
f8
38
30
60
60
60
c0
c0
f8
00
00
ENDCHAR
STARTCHAR 0x005B
ENCODING 91
SWIDTH 443 0
DWIDTH 6 0
BBX 6 13 0 -2
BITMAP
00
00
78
60
60
60
60
60
60
60
60
78
00
ENDCHAR
STARTCHAR 0x005C
ENCODING 92
SWIDTH 443 0
DWIDTH 6 0
BBX 6 13 0 -2
BITMAP
00
00
c0
60
60
30
30
18
18
08
08
00
00
ENDCHAR
STARTCHAR 0x005D
ENCODING 93
SWIDTH 443 0
DWIDTH 6 0
BBX 6 13 0 -2
BITMAP
00
00
78
18
18
18
18
18
18
18
18
78
00
ENDCHAR
STARTCHAR 0x005E
ENCODING 94
SWIDTH 443 0
DWIDTH 6 0
BBX 6 13 0 -2
BITMAP
00
00
30
58
8c
00
00
00
00
00
00
00
00
ENDCHAR
STARTCHAR 0x005F
ENCODING 95
SWIDTH 443 0
DWIDTH 6 0
BBX 6 13 0 -2
BITMAP
00
00
00
00
00
00
00
00
00
00
00
f8
00
ENDCHAR
STARTCHAR 0x0060
ENCODING 96
SWIDTH 443 0
DWIDTH 6 0
BBX 6 13 0 -2
BITMAP
00
00
60
30
18
00
00
00
00
00
00
00
00
ENDCHAR
STARTCHAR 0x0061
ENCODING 97
SWIDTH 443 0
DWIDTH 6 0
BBX 6 13 0 -2
BITMAP
00
00
00
30
18
18
78
d8
d8
d8
78
00
00
ENDCHAR
STARTCHAR 0x0062
ENCODING 98
SWIDTH 443 0
DWIDTH 6 0
BBX 6 13 0 -2
BITMAP
00
c0
c0
c0
f0
d8
d8
d8
d8
d8
f0
00
00
ENDCHAR
STARTCHAR 0x0063
ENCODING 99
SWIDTH 443 0
DWIDTH 6 0
BBX 6 13 0 -2
BITMAP
00
00
00
00
78
c0
c0
c0
c0
c0
78
00
00
ENDCHAR
STARTCHAR 0x0064
ENCODING 100
SWIDTH 443 0
DWIDTH 6 0
BBX 6 13 0 -2
BITMAP
00
18
18
18
78
d8
d8
d8
d8
d8
78
00
00
ENDCHAR
STARTCHAR 0x0065
ENCODING 101
SWIDTH 443 0
DWIDTH 6 0
BBX 6 13 0 -2
BITMAP
00
00
00
00
70
d8
d8
f8
c0
c0
70
00
00
ENDCHAR
STARTCHAR 0x0066
ENCODING 102
SWIDTH 443 0
DWIDTH 6 0
BBX 6 13 0 -2
BITMAP
00
00
38
60
60
f8
60
60
60
60
60
00
00
ENDCHAR
STARTCHAR 0x0067
ENCODING 103
SWIDTH 443 0
DWIDTH 6 0
BBX 6 13 0 -2
BITMAP
00
00
00
00
78
d8
d8
d8
d8
78
18
30
00
ENDCHAR
STARTCHAR 0x0068
ENCODING 104
SWIDTH 443 0
DWIDTH 6 0
BBX 6 13 0 -2
BITMAP
00
c0
c0
c0
f0
d8
d8
d8
d8
d8
d8
00
00
ENDCHAR
STARTCHAR 0x0069
ENCODING 105
SWIDTH 443 0
DWIDTH 6 0
BBX 6 13 0 -2
BITMAP
00
00
30
00
70
30
30
30
30
30
78
00
00
ENDCHAR
STARTCHAR 0x006A
ENCODING 106
SWIDTH 443 0
DWIDTH 6 0
BBX 6 13 0 -2
BITMAP
00
00
18
00
38
18
18
18
18
18
18
f0
00
ENDCHAR
STARTCHAR 0x006B
ENCODING 107
SWIDTH 443 0
DWIDTH 6 0
BBX 6 13 0 -2
BITMAP
00
00
c0
c0
d8
d0
a0
c0
a0
d0
d8
00
00
ENDCHAR
STARTCHAR 0x006C
ENCODING 108
SWIDTH 443 0
DWIDTH 6 0
BBX 6 13 0 -2
BITMAP
00
00
70
30
30
30
30
30
30
30
38
00
00
ENDCHAR
STARTCHAR 0x006D
ENCODING 109
SWIDTH 443 0
DWIDTH 6 0
BBX 6 13 0 -2
BITMAP
00
00
00
00
f0
f8
a8
a8
a8
a8
a8
00
00
ENDCHAR
STARTCHAR 0x006E
ENCODING 110
SWIDTH 443 0
DWIDTH 6 0
BBX 6 13 0 -2
BITMAP
00
00
00
00
f0
98
98
98
98
98
98
00
00
ENDCHAR
STARTCHAR 0x006F
ENCODING 111
SWIDTH 443 0
DWIDTH 6 0
BBX 6 13 0 -2
BITMAP
00
00
00
00
70
d8
d8
d8
d8
d8
70
00
00
ENDCHAR
STARTCHAR 0x0070
ENCODING 112
SWIDTH 443 0
DWIDTH 6 0
BBX 6 13 0 -2
BITMAP
00
00
00
00
f0
d8
d8
d8
d8
f0
c0
c0
c0
ENDCHAR
STARTCHAR 0x0071
ENCODING 113
SWIDTH 443 0
DWIDTH 6 0
BBX 6 13 0 -2
BITMAP
00
00
00
00
78
d8
d8
d8
d8
78
18
18
18
ENDCHAR
STARTCHAR 0x0072
ENCODING 114
SWIDTH 443 0
DWIDTH 6 0
BBX 6 13 0 -2
BITMAP
00
00
00
00
d8
e0
c0
c0
c0
c0
c0
00
00
ENDCHAR
STARTCHAR 0x0073
ENCODING 115
SWIDTH 443 0
DWIDTH 6 0
BBX 6 13 0 -2
BITMAP
00
00
00
00
78
c0
c0
70
18
18
f0
00
00
ENDCHAR
STARTCHAR 0x0074
ENCODING 116
SWIDTH 443 0
DWIDTH 6 0
BBX 6 13 0 -2
BITMAP
00
00
60
60
f8
60
60
60
60
60
38
00
00
ENDCHAR
STARTCHAR 0x0075
ENCODING 117
SWIDTH 443 0
DWIDTH 6 0
BBX 6 13 0 -2
BITMAP
00
00
00
00
d8
d8
d8
d8
d8
d8
78
00
00
ENDCHAR
STARTCHAR 0x0076
ENCODING 118
SWIDTH 443 0
DWIDTH 6 0
BBX 6 13 0 -2
BITMAP
00
00
00
00
d8
d8
d8
d8
d8
50
20
00
00
ENDCHAR
STARTCHAR 0x0077
ENCODING 119
SWIDTH 443 0
DWIDTH 6 0
BBX 6 13 0 -2
BITMAP
00
00
00
00
88
88
88
a8
a8
d8
98
00
00
ENDCHAR
STARTCHAR 0x0078
ENCODING 120
SWIDTH 443 0
DWIDTH 6 0
BBX 6 13 0 -2
BITMAP
00
00
00
00
98
98
d0
60
d0
98
98
00
00
ENDCHAR
STARTCHAR 0x0079
ENCODING 121
SWIDTH 443 0
DWIDTH 6 0
BBX 6 13 0 -2
BITMAP
00
00
00
00
98
98
98
98
98
78
18
70
00
ENDCHAR
STARTCHAR 0x007A
ENCODING 122
SWIDTH 443 0
DWIDTH 6 0
BBX 6 13 0 -2
BITMAP
00
00
00
00
f8
18
30
60
c0
80
f8
00
00
ENDCHAR
STARTCHAR 0x007B
ENCODING 123
SWIDTH 443 0
DWIDTH 6 0
BBX 6 13 0 -2
BITMAP
00
00
1c
30
30
30
30
60
30
30
30
1c
00
ENDCHAR
STARTCHAR 0x007C
ENCODING 124
SWIDTH 443 0
DWIDTH 6 0
BBX 6 13 0 -2
BITMAP
00
00
30
30
30
30
30
30
30
30
30
30
00
ENDCHAR
STARTCHAR 0x007D
ENCODING 125
SWIDTH 443 0
DWIDTH 6 0
BBX 6 13 0 -2
BITMAP
00
00
70
18
18
18
18
0c
18
18
18
70
00
ENDCHAR
STARTCHAR 0x007E
ENCODING 126
SWIDTH 443 0
DWIDTH 6 0
BBX 6 13 0 -2
BITMAP
00
00
74
d4
c8
00
00
00
00
00
00
00
00
ENDCHAR
STARTCHAR 0x007F
ENCODING 127
SWIDTH 443 0
DWIDTH 6 0
BBX 6 13 0 -2
BITMAP
00
00
00
00
00
00
00
00
00
00
00
00
00
ENDCHAR
STARTCHAR 0x00A0
ENCODING 160
SWIDTH 443 0
DWIDTH 6 0
BBX 6 13 0 -2
BITMAP
00
00
00
00
00
00
00
00
00
00
00
00
00
ENDCHAR
STARTCHAR 0x00A1
ENCODING 161
SWIDTH 443 0
DWIDTH 6 0
BBX 6 13 0 -2
BITMAP
00
00
00
00
00
00
00
00
00
70
50
70
00
ENDCHAR
STARTCHAR 0x00A2
ENCODING 162
SWIDTH 443 0
DWIDTH 6 0
BBX 6 13 0 -2
BITMAP
00
00
f8
80
80
80
80
00
00
00
00
00
00
ENDCHAR
STARTCHAR 0x00A3
ENCODING 163
SWIDTH 443 0
DWIDTH 6 0
BBX 6 13 0 -2
BITMAP
00
00
00
00
00
00
00
08
08
08
08
f8
00
ENDCHAR
STARTCHAR 0x00A4
ENCODING 164
SWIDTH 443 0
DWIDTH 6 0
BBX 6 13 0 -2
BITMAP
00
00
00
00
00
00
00
00
00
80
40
20
00
ENDCHAR
STARTCHAR 0x00A5
ENCODING 165
SWIDTH 443 0
DWIDTH 6 0
BBX 6 13 0 -2
BITMAP
00
00
00
00
00
00
00
30
30
00
00
00
00
ENDCHAR
STARTCHAR 0x00A6
ENCODING 166
SWIDTH 443 0
DWIDTH 6 0
BBX 6 13 0 -2
BITMAP
00
00
00
f8
18
18
f8
18
18
18
30
e0
00
ENDCHAR
STARTCHAR 0x00A7
ENCODING 167
SWIDTH 443 0
DWIDTH 6 0
BBX 6 13 0 -2
BITMAP
00
00
00
00
00
f0
18
18
70
40
40
80
00
ENDCHAR
STARTCHAR 0x00A8
ENCODING 168
SWIDTH 443 0
DWIDTH 6 0
BBX 6 13 0 -2
BITMAP
00
00
00
00
00
18
18
30
f0
30
30
30
00
ENDCHAR
STARTCHAR 0x00A9
ENCODING 169
SWIDTH 443 0
DWIDTH 6 0
BBX 6 13 0 -2
BITMAP
00
00
00
00
00
60
f8
98
98
18
18
70
00
ENDCHAR
STARTCHAR 0x00AA
ENCODING 170
SWIDTH 443 0
DWIDTH 6 0
BBX 6 13 0 -2
BITMAP
00
00
00
00
00
00
f8
60
60
60
60
f8
00
ENDCHAR
STARTCHAR 0x00AB
ENCODING 171
SWIDTH 443 0
DWIDTH 6 0
BBX 6 13 0 -2
BITMAP
00
00
00
00
00
30
f8
30
70
d0
b0
30
00
ENDCHAR
STARTCHAR 0x00AC
ENCODING 172
SWIDTH 443 0
DWIDTH 6 0
BBX 6 13 0 -2
BITMAP
00
00
00
00
00
60
f8
68
68
60
60
60
00
ENDCHAR
STARTCHAR 0x00AD
ENCODING 173
SWIDTH 443 0
DWIDTH 6 0
BBX 6 13 0 -2
BITMAP
00
00
00
00
00
00
e0
30
30
30
30
f8
00
ENDCHAR
STARTCHAR 0x00AE
ENCODING 174
SWIDTH 443 0
DWIDTH 6 0
BBX 6 13 0 -2
BITMAP
00
00
00
00
00
e0
30
30
f0
30
30
e0
00
ENDCHAR
STARTCHAR 0x00AF
ENCODING 175
SWIDTH 443 0
DWIDTH 6 0
BBX 6 13 0 -2
BITMAP
00
00
00
00
00
a8
a8
a8
08
18
18
f0
00
ENDCHAR
STARTCHAR 0x00B0
ENCODING 176
SWIDTH 443 0
DWIDTH 6 0
BBX 6 13 0 -2
BITMAP
00
00
00
00
00
00
00
f8
00
00
00
00
00
ENDCHAR
STARTCHAR 0x00B1
ENCODING 177
SWIDTH 443 0
DWIDTH 6 0
BBX 6 13 0 -2
BITMAP
00
00
00
f0
18
18
18
70
60
60
60
c0
00
ENDCHAR
STARTCHAR 0x00B2
ENCODING 178
SWIDTH 443 0
DWIDTH 6 0
BBX 6 13 0 -2
BITMAP
00
00
00
18
18
30
30
f0
30
30
30
30
00
ENDCHAR
STARTCHAR 0x00B3
ENCODING 179
SWIDTH 443 0
DWIDTH 6 0
BBX 6 13 0 -2
BITMAP
00
00
00
60
60
f8
98
18
18
18
30
e0
00
ENDCHAR
STARTCHAR 0x00B4
ENCODING 180
SWIDTH 443 0
DWIDTH 6 0
BBX 6 13 0 -2
BITMAP
00
00
00
00
f8
60
60
60
60
60
60
f8
00
ENDCHAR
STARTCHAR 0x00B5
ENCODING 181
SWIDTH 443 0
DWIDTH 6 0
BBX 6 13 0 -2
BITMAP
00
00
00
10
10
f8
30
50
50
d0
d0
10
00
ENDCHAR
STARTCHAR 0x00B6
ENCODING 182
SWIDTH 443 0
DWIDTH 6 0
BBX 6 13 0 -2
BITMAP
00
00
00
60
60
f8
68
68
68
68
c8
38
00
ENDCHAR
STARTCHAR 0x00B7
ENCODING 183
SWIDTH 443 0
DWIDTH 6 0
BBX 6 13 0 -2
BITMAP
00
00
00
60
60
f8
60
60
f8
60
60
60
00
ENDCHAR
STARTCHAR 0x00B8
ENCODING 184
SWIDTH 443 0
DWIDTH 6 0
BBX 6 13 0 -2
BITMAP
00
00
00
70
d8
d8
d8
18
18
18
30
e0
00
ENDCHAR
STARTCHAR 0x00B9
ENCODING 185
SWIDTH 443 0
DWIDTH 6 0
BBX 6 13 0 -2
BITMAP
00
00
00
80
80
f8
b0
b0
30
30
60
c0
00
ENDCHAR
STARTCHAR 0x00BA
ENCODING 186
SWIDTH 443 0
DWIDTH 6 0
BBX 6 13 0 -2
BITMAP
00
00
00
00
f0
18
18
18
18
18
18
f0
00
ENDCHAR
STARTCHAR 0x00BB
ENCODING 187
SWIDTH 443 0
DWIDTH 6 0
BBX 6 13 0 -2
BITMAP
00
00
00
50
50
f8
50
50
10
30
60
40
00
ENDCHAR
STARTCHAR 0x00BC
ENCODING 188
SWIDTH 443 0
DWIDTH 6 0
BBX 6 13 0 -2
BITMAP
00
00
00
00
d8
68
18
d8
68
18
30
e0
00
ENDCHAR
STARTCHAR 0x00BD
ENCODING 189
SWIDTH 443 0
DWIDTH 6 0
BBX 6 13 0 -2
BITMAP
00
00
00
f0
18
18
18
18
30
60
e0
b8
00
ENDCHAR
STARTCHAR 0x00BE
ENCODING 190
SWIDTH 443 0
DWIDTH 6 0
BBX 6 13 0 -2
BITMAP
00
00
00
40
40
f0
58
58
40
40
40
78
00
ENDCHAR
STARTCHAR 0x00BF
ENCODING 191
SWIDTH 443 0
DWIDTH 6 0
BBX 6 13 0 -2
BITMAP
00
00
00
98
98
58
58
18
30
30
60
c0
00
ENDCHAR
STARTCHAR 0x00C0
ENCODING 192
SWIDTH 443 0
DWIDTH 6 0
BBX 6 13 0 -2
BITMAP
00
00
00
70
58
98
98
f8
98
18
30
e0
00
ENDCHAR
STARTCHAR 0x00C1
ENCODING 193
SWIDTH 443 0
DWIDTH 6 0
BBX 6 13 0 -2
BITMAP
00
00
00
70
a0
60
60
f8
60
60
60
c0
00
ENDCHAR
STARTCHAR 0x00C2
ENCODING 194
SWIDTH 443 0
DWIDTH 6 0
BBX 6 13 0 -2
BITMAP
00
00
00
00
a8
a8
a8
18
18
18
30
e0
00
ENDCHAR
STARTCHAR 0x00C3
ENCODING 195
SWIDTH 443 0
DWIDTH 6 0
BBX 6 13 0 -2
BITMAP
00
00
00
f8
00
00
f8
60
60
60
60
c0
00
ENDCHAR
STARTCHAR 0x00C4
ENCODING 196
SWIDTH 443 0
DWIDTH 6 0
BBX 6 13 0 -2
BITMAP
00
00
00
c0
c0
c0
c0
e0
d8
c0
c0
c0
00
ENDCHAR
STARTCHAR 0x00C5
ENCODING 197
SWIDTH 443 0
DWIDTH 6 0
BBX 6 13 0 -2
BITMAP
00
00
00
60
60
60
f8
60
60
60
60
c0
00
ENDCHAR
STARTCHAR 0x00C6
ENCODING 198
SWIDTH 443 0
DWIDTH 6 0
BBX 6 13 0 -2
BITMAP
00
00
00
00
f8
00
00
00
00
00
00
f8
00
ENDCHAR
STARTCHAR 0x00C7
ENCODING 199
SWIDTH 443 0
DWIDTH 6 0
BBX 6 13 0 -2
BITMAP
00
00
00
f8
08
08
08
c8
68
30
70
d8
00
ENDCHAR
STARTCHAR 0x00C8
ENCODING 200
SWIDTH 443 0
DWIDTH 6 0
BBX 6 13 0 -2
BITMAP
00
00
60
60
f8
18
30
60
f0
a8
a8
60
00
ENDCHAR
STARTCHAR 0x00C9
ENCODING 201
SWIDTH 443 0
DWIDTH 6 0
BBX 6 13 0 -2
BITMAP
00
00
00
30
30
30
30
30
30
30
60
c0
00
ENDCHAR
STARTCHAR 0x00CA
ENCODING 202
SWIDTH 443 0
DWIDTH 6 0
BBX 6 13 0 -2
BITMAP
00
00
00
30
18
18
98
98
98
98
98
98
00
ENDCHAR
STARTCHAR 0x00CB
ENCODING 203
SWIDTH 443 0
DWIDTH 6 0
BBX 6 13 0 -2
BITMAP
00
00
00
c0
c0
f8
c0
c0
c0
c0
c0
78
00
ENDCHAR
STARTCHAR 0x00CC
ENCODING 204
SWIDTH 443 0
DWIDTH 6 0
BBX 6 13 0 -2
BITMAP
00
00
00
00
f0
18
18
18
18
18
30
e0
00
ENDCHAR
STARTCHAR 0x00CD
ENCODING 205
SWIDTH 443 0
DWIDTH 6 0
BBX 6 13 0 -2
BITMAP
00
00
00
00
60
b0
b0
98
98
18
18
00
00
ENDCHAR
STARTCHAR 0x00CE
ENCODING 206
SWIDTH 443 0
DWIDTH 6 0
BBX 6 13 0 -2
BITMAP
00
00
00
60
60
f8
60
60
a8
a8
a8
a8
00
ENDCHAR
STARTCHAR 0x00CF
ENCODING 207
SWIDTH 443 0
DWIDTH 6 0
BBX 6 13 0 -2
BITMAP
00
00
00
f0
18
18
18
18
18
d0
60
30
00
ENDCHAR
STARTCHAR 0x00D0
ENCODING 208
SWIDTH 443 0
DWIDTH 6 0
BBX 6 13 0 -2
BITMAP
00
00
00
00
f0
18
00
f0
18
00
f0
18
00
ENDCHAR
STARTCHAR 0x00D1
ENCODING 209
SWIDTH 443 0
DWIDTH 6 0
BBX 6 13 0 -2
BITMAP
00
00
00
60
60
c0
c0
c0
c8
c8
c8
f8
00
ENDCHAR
STARTCHAR 0x00D2
ENCODING 210
SWIDTH 443 0
DWIDTH 6 0
BBX 6 13 0 -2
BITMAP
00
00
00
30
30
30
30
d0
70
38
30
e0
00
ENDCHAR
STARTCHAR 0x00D3
ENCODING 211
SWIDTH 443 0
DWIDTH 6 0
BBX 6 13 0 -2
BITMAP
00
00
00
f8
60
60
60
f8
60
60
60
38
00
ENDCHAR
STARTCHAR 0x00D4
ENCODING 212
SWIDTH 443 0
DWIDTH 6 0
BBX 6 13 0 -2
BITMAP
00
00
00
60
60
f8
68
68
60
60
60
60
00
ENDCHAR
STARTCHAR 0x00D5
ENCODING 213
SWIDTH 443 0
DWIDTH 6 0
BBX 6 13 0 -2
BITMAP
00
00
00
00
e0
30
30
30
30
30
30
f8
00
ENDCHAR
STARTCHAR 0x00D6
ENCODING 214
SWIDTH 443 0
DWIDTH 6 0
BBX 6 13 0 -2
BITMAP
00
00
00
f0
18
18
18
f8
18
18
18
f8
00
ENDCHAR
STARTCHAR 0x00D7
ENCODING 215
SWIDTH 443 0
DWIDTH 6 0
BBX 6 13 0 -2
BITMAP
00
00
00
f8
00
00
f8
18
18
18
30
e0
00
ENDCHAR
STARTCHAR 0x00D8
ENCODING 216
SWIDTH 443 0
DWIDTH 6 0
BBX 6 13 0 -2
BITMAP
00
00
00
98
98
98
98
98
18
18
30
e0
00
ENDCHAR
STARTCHAR 0x00D9
ENCODING 217
SWIDTH 443 0
DWIDTH 6 0
BBX 6 13 0 -2
BITMAP
00
00
00
a0
a0
a0
a0
a0
a8
a8
a8
b0
00
ENDCHAR
STARTCHAR 0x00DA
ENCODING 218
SWIDTH 443 0
DWIDTH 6 0
BBX 6 13 0 -2
BITMAP
00
00
00
80
80
80
80
98
98
98
b0
e0
00
ENDCHAR
STARTCHAR 0x00DB
ENCODING 219
SWIDTH 443 0
DWIDTH 6 0
BBX 6 13 0 -2
BITMAP
00
00
00
f8
98
98
98
98
98
98
98
f8
00
ENDCHAR
STARTCHAR 0x00DC
ENCODING 220
SWIDTH 443 0
DWIDTH 6 0
BBX 6 13 0 -2
BITMAP
00
00
00
f8
98
98
98
18
18
18
30
e0
00
ENDCHAR
STARTCHAR 0x00DD
ENCODING 221
SWIDTH 443 0
DWIDTH 6 0
BBX 6 13 0 -2
BITMAP
00
00
00
00
e8
08
18
18
18
18
30
e0
00
ENDCHAR
STARTCHAR 0x00DE
ENCODING 222
SWIDTH 443 0
DWIDTH 6 0
BBX 6 13 0 -2
BITMAP
00
00
00
a0
a0
a0
00
00
00
00
00
00
00
ENDCHAR
STARTCHAR 0x00DF
ENCODING 223
SWIDTH 443 0
DWIDTH 6 0
BBX 6 13 0 -2
BITMAP
00
00
60
90
90
60
00
00
00
00
00
00
00
ENDCHAR
ENDFONT
